# xmcd CD database file generated by MAGIX-FreeDB-MP3_Maker_15 v2.0beta1
# 
# Track frame offsets:
#      150
#      12605
#      23618
#      34703
#      47705
#      62673
#      74289
#      84067
#      98754
#      106898
#      118911
#      129708
#      143068
#      160254
# 
# Disc length: 2288 seconds
# 
# Revision: 2 
# Processed by: cddbd v1.5.2PL0 Copyright (c) Steve Scherf et al.
# Submitted via: MAGIX-FreeDB-MP3_Maker_15 v2.0beta1
# 
DISCID=b408ee0e
DTITLE=Various Artist - The Great Country Collection - 1 of 8
DYEAR=2002
DGENRE=Country
TTITLE0=Various Artist - Charlie Rich - Behind Closed Doors
TTITLE1=Various Artist - Sandy Posey - Single Girl
TTITLE2=Various Artist - Guy Mitchell - Singing The Blues
TTITLE3=Various Artist - Faron Young - It's Four In The Morning
TTITLE4=Various Artist - Jeannie C. Riley - Harper Valley PTA
TTITLE5=Various Artist - Freddy Fender - Before The Next Teardrop Falls
TTITLE6=Various Artist - Ned Miller - From A Jack To A King
TTITLE7=Various Artist - B. J. Thomas - I'm So Lonesome I Could Cry
TTITLE8=Various Artist - Don Gibson - Blue Blue Day
TTITLE9=Various Artist - Jodie Miller - Queen Of The House
TTITLE10=Various Artist - Ferlin Husky - Wings Of A Dove
TTITLE11=Various Artist - Patti Page - Tenesse Waltz
TTITLE12=Various Artist - Ray Price - For The Good Times
TTITLE13=Various Artist - Billie Joe Spears - Stand By Your Man
EXTD=YEAR: 2002
EXTT0=
EXTT1=
EXTT2=
EXTT3=
EXTT4=
EXTT5=
EXTT6=
EXTT7=
EXTT8=
EXTT9=
EXTT10=
EXTT11=
EXTT12=
EXTT13=
PLAYORDER=
